ffmpeg started on 2025-05-12 at 20:24:56
Report written to "D:\Convert\FFMetrics\reports\ssim_report-6.txt"
Log level: 32
Command line:
ffmpeg -hide_banner -nostdin -i "G:\\\xc0\xed\xe8\xec\xe5\\\xce\xed\xe3\xee\xe8\xed\xe3\xe8\\!_35_\xcb\xe5\xf2\xee_2024\\DreamCast-1\\\xcf\xee\xeb\xf3\xed\xee\xf7\xed\xfb\xe9 \xf3\xe4\xe0\xf0\\[DC] Mayonaka Punch - 09_Telegram_HEVC.mkv" -i "G:\\\xc0\xed\xe8\xec\xe5\\\xce\xed\xe3\xee\xe8\xed\xe3\xe8\\!_35_\xcb\xe5\xf2\xee_2024\\DreamCast-1\\\xcf\xee\xeb\xf3\xed\xee\xf7\xed\xfb\xe9 \xf3\xe4\xe0\xf0\\[DC] Mayonaka Punch - 09_Telegram.mp4" -lavfi "[0:v]settb=AVTB,setpts=PTS-STARTPTS,format=pix_fmts=yuv420p10,fps=24000/1001,scale=1920:1080:flags=bicubic[main];[1:v]settb=AVTB,setpts=PTS-STARTPTS,format=pix_fmts=yuv420p,fps=24000/1001,scale=1920:1080:flags=bicubic[ref];[main][ref]ssim=eof_action=endall:stats_file='D\\:/Convert/FFMetrics/logs/ssim_logfile-6.txt'" -f null -
Input #0, matroska,webm, from 'G:\Аниме\Онгоинги\!_35_Лето_2024\DreamCast-1\Полуночный удар\[DC] Mayonaka Punch - 09_Telegram_HEVC.mkv':
  Metadata:
    COMPATIBLE_BRANDS: isomiso2avc1mp41
    MAJOR_BRAND     : isom
    MINOR_VERSION   : 512
    ENCODER         : Lavf61.7.100
  Duration: 00:23:47.76, start: -0.021000, bitrate: 1091 kb/s
  Stream #0:0: Video: hevc (Main 10), yuv420p10le(tv, bt709, progressive), 1920x1080 [SAR 1:1 DAR 16:9], 23.98 fps, 23.98 tbr, 1k tbn (default)
      Metadata:
        HANDLER_NAME    : VideoHandler
        VENDOR_ID       : [0][0][0][0]
        ENCODER         : Lavc61.19.100 libx265
        BPS             : 895932
        DURATION        : 00:23:46.591708333
        NUMBER_OF_FRAMES: 34204
        NUMBER_OF_BYTES : 159766072
        _STATISTICS_WRITING_APP: mkvpropedit v66.0.0 ('Josie') 64-bit
        _STATISTICS_WRITING_DATE_UTC: 2025-05-10 11:36:23
        _STATISTICS_TAGS: BPS DURATION NUMBER_OF_FRAMES NUMBER_OF_BYTES
  Stream #0:1: Audio: aac (LC), 48000 Hz, stereo, fltp (default)
      Metadata:
        HANDLER_NAME    : SoundHandler
        VENDOR_ID       : [0][0][0][0]
        ENCODER         : Lavc61.19.100 aac
        BPS             : 192686
        DURATION        : 00:23:47.754000000
        NUMBER_OF_FRAMES: 66927
        NUMBER_OF_BYTES : 34388703
        _STATISTICS_WRITING_APP: mkvpropedit v66.0.0 ('Josie') 64-bit
        _STATISTICS_WRITING_DATE_UTC: 2025-05-10 11:36:23
        _STATISTICS_TAGS: BPS DURATION NUMBER_OF_FRAMES NUMBER_OF_BYTES
Input #1, mov,mp4,m4a,3gp,3g2,mj2, from 'G:\Аниме\Онгоинги\!_35_Лето_2024\DreamCast-1\Полуночный удар\[DC] Mayonaka Punch - 09_Telegram.mp4':
  Metadata:
    major_brand     : isom
    minor_version   : 512
    compatible_brands: isomiso2avc1mp41
    encoder         : Lavf61.1.100
  Duration: 00:23:47.72, start: 0.000000, bitrate: 3672 kb/s
  Stream #1:0[0x1](und): Video: h264 (High) (avc1 / 0x31637661), yuv420p(tv, bt709, progressive), 1920x1080 [SAR 1:1 DAR 16:9], 3527 kb/s, 23.98 fps, 23.98 tbr, 24k tbn (default)
      Metadata:
        handler_name    : VideoHandler
        vendor_id       : [0][0][0][0]
        encoder         : Lavc61.3.100 h264_qsv
  Stream #1:1[0x2](und): Audio: aac (HE-AACv2) (mp4a / 0x6134706D), 48000 Hz, stereo, fltp, 144 kb/s (default)
      Metadata:
        handler_name    : SoundHandler
        vendor_id       : [0][0][0][0]
Stream mapping:
  Stream #0:0 (hevc) -> settb:default
  Stream #1:0 (h264) -> settb:default
  ssim:default -> Stream #0:0 (wrapped_avframe)
  Stream #0:1 -> #0:1 (aac (native) -> pcm_s16le (native))
Output #0, null, to 'pipe:':
  Metadata:
    COMPATIBLE_BRANDS: isomiso2avc1mp41
    MAJOR_BRAND     : isom
    MINOR_VERSION   : 512
    encoder         : Lavf61.7.100
  Stream #0:0: Video: wrapped_avframe, yuv420p10le(tv, bt709, progressive), 1920x1080 [SAR 1:1 DAR 16:9], q=2-31, 200 kb/s, 23.98 fps, 23.98 tbn
      Metadata:
        encoder         : Lavc61.19.100 wrapped_avframe
  Stream #0:1: Audio: pcm_s16le, 48000 Hz, stereo, s16, 1536 kb/s (default)
      Metadata:
        HANDLER_NAME    : SoundHandler
        VENDOR_ID       : [0][0][0][0]
        _STATISTICS_TAGS: BPS DURATION NUMBER_OF_FRAMES NUMBER_OF_BYTES
        BPS             : 192686
        DURATION        : 00:23:47.754000000
        NUMBER_OF_FRAMES: 66927
        NUMBER_OF_BYTES : 34388703
        _STATISTICS_WRITING_APP: mkvpropedit v66.0.0 ('Josie') 64-bit
        _STATISTICS_WRITING_DATE_UTC: 2025-05-10 11:36:23
        encoder         : Lavc61.19.100 pcm_s16le
frame=  150 fps=0.0 q=-0.0 size=N/A time=00:00:06.25 bitrate=N/A speed=12.1x    frame=  322 fps=315 q=-0.0 size=N/A time=00:00:13.43 bitrate=N/A speed=13.1x    frame=  521 fps=339 q=-0.0 size=N/A time=00:00:21.73 bitrate=N/A speed=14.1x    frame=  761 fps=369 q=-0.0 size=N/A time=00:00:31.74 bitrate=N/A speed=15.4x    frame= 1005 fps=391 q=-0.0 size=N/A time=00:00:41.91 bitrate=N/A speed=16.3x    frame= 1235 fps=400 q=-0.0 size=N/A time=00:00:51.50 bitrate=N/A speed=16.7x    frame= 1381 fps=383 q=-0.0 size=N/A time=00:00:57.59 bitrate=N/A speed=  16x    frame= 1534 fps=373 q=-0.0 size=N/A time=00:01:03.98 bitrate=N/A speed=15.6x    frame= 1687 fps=364 q=-0.0 size=N/A time=00:01:10.36 bitrate=N/A speed=15.2x    frame= 1870 fps=363 q=-0.0 size=N/A time=00:01:17.99 bitrate=N/A speed=15.1x    frame= 2045 fps=361 q=-0.0 size=N/A time=00:01:25.29 bitrate=N/A speed=15.1x    frame= 2216 fps=358 q=-0.0 size=N/A time=00:01:32.42 bitrate=N/A speed=14.9x    frame= 2399 fps=359 q=-0.0 size=N/A time=00:01:40.05 bitrate=N/A speed=  15x    frame= 2586 fps=359 q=-0.0 size=N/A time=00:01:47.89 bitrate=N/A speed=  15x    frame= 2782 fps=360 q=-0.0 size=N/A time=00:01:56.03 bitrate=N/A speed=  15x    frame= 2960 fps=359 q=-0.0 size=N/A time=00:02:03.45 bitrate=N/A speed=  15x    frame= 3149 fps=359 q=-0.0 size=N/A time=00:02:11.33 bitrate=N/A speed=  15x    frame= 3317 fps=358 q=-0.0 size=N/A time=00:02:18.34 bitrate=N/A speed=14.9x    frame= 3479 fps=356 q=-0.0 size=N/A time=00:02:25.10 bitrate=N/A speed=14.8x    frame= 3663 fps=355 q=-0.0 size=N/A time=00:02:32.77 bitrate=N/A speed=14.8x    frame= 3881 fps=358 q=-0.0 size=N/A time=00:02:41.87 bitrate=N/A speed=  15x    frame= 4098 fps=362 q=-0.0 size=N/A time=00:02:50.92 bitrate=N/A speed=15.1x    frame= 4323 fps=365 q=-0.0 size=N/A time=00:03:00.30 bitrate=N/A speed=15.2x    frame= 4592 fps=371 q=-0.0 size=N/A time=00:03:11.52 bitrate=N/A speed=15.5x    frame= 4860 fps=377 q=-0.0 size=N/A time=00:03:22.70 bitrate=N/A speed=15.7x    frame= 5109 fps=381 q=-0.0 size=N/A time=00:03:33.08 bitrate=N/A speed=15.9x    frame= 5355 fps=385 q=-0.0 size=N/A time=00:03:43.34 bitrate=N/A speed=  16x    frame= 5594 fps=387 q=-0.0 size=N/A time=00:03:53.31 bitrate=N/A speed=16.2x    frame= 5799 fps=388 q=-0.0 size=N/A time=00:04:01.86 bitrate=N/A speed=16.2x    frame= 6073 fps=393 q=-0.0 size=N/A time=00:04:13.29 bitrate=N/A speed=16.4x    frame= 6320 fps=396 q=-0.0 size=N/A time=00:04:23.59 bitrate=N/A speed=16.5x    frame= 6582 fps=399 q=-0.0 size=N/A time=00:04:34.52 bitrate=N/A speed=16.6x    frame= 6801 fps=400 q=-0.0 size=N/A time=00:04:43.65 bitrate=N/A speed=16.7x    frame= 7047 fps=402 q=-0.0 size=N/A time=00:04:53.91 bitrate=N/A speed=16.8x    frame= 7299 fps=404 q=-0.0 size=N/A time=00:05:04.42 bitrate=N/A speed=16.9x    frame= 7541 fps=407 q=-0.0 size=N/A time=00:05:14.52 bitrate=N/A speed=  17x    frame= 7815 fps=410 q=-0.0 size=N/A time=00:05:25.95 bitrate=N/A speed=17.1x    frame= 8068 fps=412 q=-0.0 size=N/A time=00:05:36.50 bitrate=N/A speed=17.2x    frame= 8300 fps=413 q=-0.0 size=N/A time=00:05:46.17 bitrate=N/A speed=17.2x    frame= 8525 fps=413 q=-0.0 size=N/A time=00:05:55.56 bitrate=N/A speed=17.2x    frame= 8764 fps=415 q=-0.0 size=N/A time=00:06:05.53 bitrate=N/A speed=17.3x    frame= 9000 fps=416 q=-0.0 size=N/A time=00:06:15.37 bitrate=N/A speed=17.3x    frame= 9230 fps=416 q=-0.0 size=N/A time=00:06:24.96 bitrate=N/A speed=17.4x    frame= 9407 fps=415 q=-0.0 size=N/A time=00:06:32.35 bitrate=N/A speed=17.3x    frame= 9587 fps=413 q=-0.0 size=N/A time=00:06:39.85 bitrate=N/A speed=17.2x    frame= 9770 fps=412 q=-0.0 size=N/A time=00:06:47.49 bitrate=N/A speed=17.2x    frame= 9992 fps=412 q=-0.0 size=N/A time=00:06:56.74 bitrate=N/A speed=17.2x    frame=10229 fps=413 q=-0.0 size=N/A time=00:07:06.63 bitrate=N/A speed=17.2x    frame=10468 fps=414 q=-0.0 size=N/A time=00:07:16.60 bitrate=N/A speed=17.3x    frame=10689 fps=415 q=-0.0 size=N/A time=00:07:25.82 bitrate=N/A speed=17.3x    frame=10934 fps=416 q=-0.0 size=N/A time=00:07:36.03 bitrate=N/A speed=17.3x    frame=11182 fps=417 q=-0.0 size=N/A time=00:07:46.38 bitrate=N/A speed=17.4x    frame=11424 fps=418 q=-0.0 size=N/A time=00:07:56.47 bitrate=N/A speed=17.4x    frame=11647 fps=418 q=-0.0 size=N/A time=00:08:05.77 bitrate=N/A speed=17.4x    frame=11899 fps=420 q=-0.0 size=N/A time=00:08:16.28 bitrate=N/A speed=17.5x    frame=12129 fps=420 q=-0.0 size=N/A time=00:08:25.88 bitrate=N/A speed=17.5x    frame=12365 fps=421 q=-0.0 size=N/A time=00:08:35.72 bitrate=N/A speed=17.6x    frame=12595 fps=421 q=-0.0 size=N/A time=00:08:45.31 bitrate=N/A speed=17.6x    frame=12841 fps=422 q=-0.0 size=N/A time=00:08:55.57 bitrate=N/A speed=17.6x    frame=13048 fps=422 q=-0.0 size=N/A time=00:09:04.21 bitrate=N/A speed=17.6x    frame=13284 fps=422 q=-0.0 size=N/A time=00:09:14.05 bitrate=N/A speed=17.6x    frame=13526 fps=423 q=-0.0 size=N/A time=00:09:24.14 bitrate=N/A speed=17.6x    frame=13743 fps=423 q=-0.0 size=N/A time=00:09:33.19 bitrate=N/A speed=17.6x    frame=13986 fps=424 q=-0.0 size=N/A time=00:09:43.33 bitrate=N/A speed=17.7x    frame=14226 fps=424 q=-0.0 size=N/A time=00:09:53.34 bitrate=N/A speed=17.7x    frame=14470 fps=425 q=-0.0 size=N/A time=00:10:03.51 bitrate=N/A speed=17.7x    frame=14712 fps=426 q=-0.0 size=N/A time=00:10:13.61 bitrate=N/A speed=17.8x    frame=14949 fps=426 q=-0.0 size=N/A time=00:10:23.49 bitrate=N/A speed=17.8x    frame=15193 fps=427 q=-0.0 size=N/A time=00:10:33.67 bitrate=N/A speed=17.8x    frame=15441 fps=428 q=-0.0 size=N/A time=00:10:44.01 bitrate=N/A speed=17.8x    frame=15713 fps=429 q=-0.0 size=N/A time=00:10:55.36 bitrate=N/A speed=17.9x    frame=15942 fps=430 q=-0.0 size=N/A time=00:11:04.91 bitrate=N/A speed=17.9x    frame=16195 fps=430 q=-0.0 size=N/A time=00:11:15.46 bitrate=N/A speed=17.9x    frame=16433 fps=431 q=-0.0 size=N/A time=00:11:25.39 bitrate=N/A speed=  18x    frame=16656 fps=431 q=-0.0 size=N/A time=00:11:34.69 bitrate=N/A speed=  18x    frame=16870 fps=431 q=-0.0 size=N/A time=00:11:43.61 bitrate=N/A speed=  18x    frame=17119 fps=431 q=-0.0 size=N/A time=00:11:54.00 bitrate=N/A speed=  18x    frame=17381 fps=432 q=-0.0 size=N/A time=00:12:04.93 bitrate=N/A speed=  18x    frame=17613 fps=432 q=-0.0 size=N/A time=00:12:14.60 bitrate=N/A speed=  18x    frame=17861 fps=433 q=-0.0 size=N/A time=00:12:24.95 bitrate=N/A speed=18.1x    frame=18087 fps=433 q=-0.0 size=N/A time=00:12:34.37 bitrate=N/A speed=18.1x    frame=18328 fps=434 q=-0.0 size=N/A time=00:12:44.43 bitrate=N/A speed=18.1x    frame=18573 fps=434 q=-0.0 size=N/A time=00:12:54.64 bitrate=N/A speed=18.1x    frame=18828 fps=435 q=-0.0 size=N/A time=00:13:05.28 bitrate=N/A speed=18.1x    frame=19084 fps=436 q=-0.0 size=N/A time=00:13:15.96 bitrate=N/A speed=18.2x    frame=19338 fps=436 q=-0.0 size=N/A time=00:13:26.55 bitrate=N/A speed=18.2x    frame=19567 fps=436 q=-0.0 size=N/A time=00:13:36.10 bitrate=N/A speed=18.2x    frame=19768 fps=436 q=-0.0 size=N/A time=00:13:44.49 bitrate=N/A speed=18.2x    frame=19966 fps=435 q=-0.0 size=N/A time=00:13:52.74 bitrate=N/A speed=18.2x    frame=20195 fps=435 q=-0.0 size=N/A time=00:14:02.29 bitrate=N/A speed=18.2x    frame=20441 fps=436 q=-0.0 size=N/A time=00:14:12.56 bitrate=N/A speed=18.2x    frame=20692 fps=436 q=-0.0 size=N/A time=00:14:23.02 bitrate=N/A speed=18.2x    frame=20929 fps=437 q=-0.0 size=N/A time=00:14:32.91 bitrate=N/A speed=18.2x    frame=21190 fps=437 q=-0.0 size=N/A time=00:14:43.79 bitrate=N/A speed=18.2x    frame=21427 fps=437 q=-0.0 size=N/A time=00:14:53.68 bitrate=N/A speed=18.2x    frame=21653 fps=437 q=-0.0 size=N/A time=00:15:03.11 bitrate=N/A speed=18.2x    frame=21898 fps=438 q=-0.0 size=N/A time=00:15:13.32 bitrate=N/A speed=18.3x    frame=22136 fps=438 q=-0.0 size=N/A time=00:15:23.25 bitrate=N/A speed=18.3x    frame=22376 fps=438 q=-0.0 size=N/A time=00:15:33.26 bitrate=N/A speed=18.3x    frame=22615 fps=439 q=-0.0 size=N/A time=00:15:43.23 bitrate=N/A speed=18.3x    frame=22871 fps=439 q=-0.0 size=N/A time=00:15:53.91 bitrate=N/A speed=18.3x    frame=23127 fps=440 q=-0.0 size=N/A time=00:16:04.58 bitrate=N/A speed=18.3x    frame=23383 fps=440 q=-0.0 size=N/A time=00:16:15.26 bitrate=N/A speed=18.4x    frame=23603 fps=440 q=-0.0 size=N/A time=00:16:24.44 bitrate=N/A speed=18.4x    frame=23791 fps=439 q=-0.0 size=N/A time=00:16:32.28 bitrate=N/A speed=18.3x    frame=24019 fps=439 q=-0.0 size=N/A time=00:16:41.79 bitrate=N/A speed=18.3x    frame=24261 fps=440 q=-0.0 size=N/A time=00:16:51.88 bitrate=N/A speed=18.3x    frame=24500 fps=440 q=-0.0 size=N/A time=00:17:01.85 bitrate=N/A speed=18.4x    frame=24752 fps=440 q=-0.0 size=N/A time=00:17:12.36 bitrate=N/A speed=18.4x    frame=24988 fps=441 q=-0.0 size=N/A time=00:17:22.20 bitrate=N/A speed=18.4x    frame=25232 fps=441 q=-0.0 size=N/A time=00:17:32.38 bitrate=N/A speed=18.4x    frame=25482 fps=441 q=-0.0 size=N/A time=00:17:42.81 bitrate=N/A speed=18.4x    frame=25721 fps=441 q=-0.0 size=N/A time=00:17:52.78 bitrate=N/A speed=18.4x    frame=25951 fps=442 q=-0.0 size=N/A time=00:18:02.37 bitrate=N/A speed=18.4x    frame=26209 fps=442 q=-0.0 size=N/A time=00:18:13.13 bitrate=N/A speed=18.4x    frame=26454 fps=442 q=-0.0 size=N/A time=00:18:23.35 bitrate=N/A speed=18.4x    frame=26730 fps=443 q=-0.0 size=N/A time=00:18:34.86 bitrate=N/A speed=18.5x    frame=26971 fps=443 q=-0.0 size=N/A time=00:18:44.91 bitrate=N/A speed=18.5x    frame=27220 fps=444 q=-0.0 size=N/A time=00:18:55.30 bitrate=N/A speed=18.5x    frame=27442 fps=444 q=-0.0 size=N/A time=00:19:04.56 bitrate=N/A speed=18.5x    frame=27685 fps=444 q=-0.0 size=N/A time=00:19:14.69 bitrate=N/A speed=18.5x    frame=27912 fps=444 q=-0.0 size=N/A time=00:19:24.16 bitrate=N/A speed=18.5x    frame=28148 fps=444 q=-0.0 size=N/A time=00:19:34.00 bitrate=N/A speed=18.5x    frame=28404 fps=444 q=-0.0 size=N/A time=00:19:44.68 bitrate=N/A speed=18.5x    frame=28663 fps=445 q=-0.0 size=N/A time=00:19:55.48 bitrate=N/A speed=18.5x    frame=28900 fps=445 q=-0.0 size=N/A time=00:20:05.37 bitrate=N/A speed=18.6x    frame=29155 fps=445 q=-0.0 size=N/A time=00:20:16.00 bitrate=N/A speed=18.6x    frame=29395 fps=445 q=-0.0 size=N/A time=00:20:26.01 bitrate=N/A speed=18.6x    frame=29645 fps=446 q=-0.0 size=N/A time=00:20:36.44 bitrate=N/A speed=18.6x    frame=29885 fps=446 q=-0.0 size=N/A time=00:20:46.45 bitrate=N/A speed=18.6x    frame=30130 fps=446 q=-0.0 size=N/A time=00:20:56.67 bitrate=N/A speed=18.6x    frame=30377 fps=446 q=-0.0 size=N/A time=00:21:06.97 bitrate=N/A speed=18.6x    frame=30641 fps=447 q=-0.0 size=N/A time=00:21:17.98 bitrate=N/A speed=18.6x    frame=30892 fps=447 q=-0.0 size=N/A time=00:21:28.45 bitrate=N/A speed=18.6x    frame=31148 fps=448 q=-0.0 size=N/A time=00:21:39.13 bitrate=N/A speed=18.7x    frame=31401 fps=448 q=-0.0 size=N/A time=00:21:49.68 bitrate=N/A speed=18.7x    frame=31645 fps=448 q=-0.0 size=N/A time=00:21:59.86 bitrate=N/A speed=18.7x    frame=31892 fps=448 q=-0.0 size=N/A time=00:22:10.16 bitrate=N/A speed=18.7x    frame=32134 fps=448 q=-0.0 size=N/A time=00:22:20.25 bitrate=N/A speed=18.7x    frame=32366 fps=448 q=-0.0 size=N/A time=00:22:29.93 bitrate=N/A speed=18.7x    frame=32576 fps=448 q=-0.0 size=N/A time=00:22:38.69 bitrate=N/A speed=18.7x    frame=32797 fps=448 q=-0.0 size=N/A time=00:22:47.90 bitrate=N/A speed=18.7x    frame=32976 fps=447 q=-0.0 size=N/A time=00:22:55.37 bitrate=N/A speed=18.7x    frame=33186 fps=447 q=-0.0 size=N/A time=00:23:04.13 bitrate=N/A speed=18.6x    frame=33386 fps=446 q=-0.0 size=N/A time=00:23:12.47 bitrate=N/A speed=18.6x    frame=33636 fps=447 q=-0.0 size=N/A time=00:23:22.90 bitrate=N/A speed=18.6x    frame=33883 fps=447 q=-0.0 size=N/A time=00:23:33.20 bitrate=N/A speed=18.6x    frame=34092 fps=447 q=-0.0 size=N/A time=00:23:41.92 bitrate=N/A speed=18.6x    [Parsed_ssim_10 @ 0000025f9b159840] SSIM Y:0.993522 (21.885700) U:0.994295 (22.437767) V:0.993304 (21.741855) All:0.993615 (21.948175)
[out#0/null @ 0000025f9b134340] video:14697KiB audio:267708KiB subtitle:0KiB other streams:0KiB global headers:0KiB muxing overhead: unknown
frame=34204 fps=446 q=-0.0 Lsize=N/A time=00:23:46.59 bitrate=N/A speed=18.6x    
